<svg width="22" height="19" viewBox="0 0 22 19" fill="none" xmlns="http://www.w3.org/2000/svg">
<path d="M11.8994 1.73287L10.9968 2.63658L10.0913 1.73206C7.78285 -0.574239 4.03995 -0.574239 1.73141 1.73206C-0.577137 4.03834 -0.577137 7.77757 1.73141 10.0839L10.4147 18.7586C10.7368 19.0805 11.2591 19.0805 11.5812 18.7586L20.2712 10.0823C22.5746 7.76834 22.5785 4.03958 20.2696 1.73287C17.9569 -0.577623 14.2122 -0.577623 11.8994 1.73287ZM19.1014 8.92013L10.9979 17.0107L2.89792 8.91849C1.23361 7.25579 1.23361 4.5601 2.89792 2.89743C4.56222 1.23474 7.26058 1.23474 8.9249 2.89743L10.4178 4.38887C10.7454 4.71615 11.2785 4.70977 11.5981 4.37476L13.066 2.89824C14.7345 1.23137 17.4346 1.23137 19.1031 2.89824C20.7678 4.56132 20.765 7.24909 19.1014 8.92013Z" fill="white"/>
</svg>
