<svg width="20" height="23" viewBox="0 0 20 23" fill="none" xmlns="http://www.w3.org/2000/svg">
<path d="M13.9357 8.35002V4.67501C13.9357 2.64536 12.2352 1 10.1375 1C8.0398 1 6.33925 2.64536 6.33925 4.67501V8.35002" stroke="white" stroke-width="1.3" stroke-linecap="round"/>
<path d="M18.4253 11.064C18.2805 8.77906 18.2081 7.63666 17.6353 6.94332C17.0624 6.25 16.1909 6.25 14.4477 6.25H5.82733C4.08419 6.25 3.21258 6.25 2.63971 6.94332C2.06695 7.63666 1.99451 8.77906 1.84972 11.064L1.33702 19.157C1.25271 20.4873 1.2106 21.1524 1.50706 21.5762C1.80352 22 2.31092 22.0001 3.32583 22.0001H16.9492C17.9641 22.0001 18.4715 22 18.768 21.5762C19.0644 21.1524 19.0223 20.4873 18.938 19.157L18.4253 11.064Z" stroke="white" stroke-width="1.3"/>
</svg>
