<svg width="20" height="21" viewBox="0 0 20 21" fill="none" xmlns="http://www.w3.org/2000/svg">
<path d="M1.66667 8.27779C1.66667 4.90271 4.40271 2.16667 7.77779 2.16667C11.1529 2.16667 13.8889 4.90271 13.8889 8.27779C13.8889 11.6529 11.1529 14.3889 7.77779 14.3889C4.40271 14.3889 1.66667 11.6529 1.66667 8.27779ZM7.77779 0.5C3.48224 0.5 0 3.98224 0 8.27779C0 12.5733 3.48224 16.0556 7.77779 16.0556C9.62535 16.0556 11.3225 15.4114 12.6568 14.3354L18.5775 20.2559C18.9029 20.5814 19.4305 20.5814 19.7559 20.2559C20.0814 19.9305 20.0814 19.4029 19.7559 19.0775L13.8354 13.1568C14.9114 11.8225 15.5556 10.1253 15.5556 8.27779C15.5556 3.98224 12.0733 0.5 7.77779 0.5Z" fill="white"/>
</svg>
